<?xml version="1.0"?>
<svg xmlns="http://www.w3.org/2000/svg" xmlns:xlink="http://www.w3.org/1999/xlink" xmlns:svgjs="http://svgjs.com/svgjs" version="1.1" width="512" height="512" x="0" y="0" viewBox="0 0 512 512" style="enable-background:new 0 0 512 512" xml:space="preserve" class=""><g><path xmlns="http://www.w3.org/2000/svg" d="m511.984375 255.992188c0-68.378907-26.628906-132.664063-74.976563-181.015626-45.328124-45.328124-104.664062-71.5625-168.246093-74.664062-4.238281-.207031-8.496094-.3125-12.769531-.3125-19.664063 0-38.960938 2.203125-57.746094 6.539062-16.171875 3.730469-31.964844 9.035157-47.277344 15.929688-4.019531 1.808594-5.621094 6.859375-3.375 10.664062 1.917969 3.242188 6.097656 4.5625 9.53125 3.011719 20.285156-9.136719 41.472656-15.320312 63.292969-18.539062 7.5-1.101563 15.070312-1.875 22.714843-2.273438 4.265626-.222656 8.554688-.332031 12.859376-.332031 64.371093 0 124.890624 25.066406 170.40625 70.585938 45.519531 45.519531 70.585937 106.039062 70.585937 170.414062 0 9.0625-.515625 18.042969-1.496094 26.921875-5.988281 54.1875-29.980469 104.371094-69.089843 143.480469-45.515626 45.515625-106.035157 70.582031-170.40625 70.582031-64.371094 0-124.890626-25.066406-170.40625-70.582031-39.109376-39.109375-63.101563-89.292969-69.089844-143.480469-.980469-8.878906-1.496094-17.859375-1.496094-26.921875 0-41.304688 10.625-82.054688 30.722656-117.839844 19.492188-34.707031 47.566406-64.34375 81.191406-85.714844 3.496094-2.222656 4.53125-6.855468 2.308594-10.351562s-6.855468-4.527344-10.351562-2.308594c-35.710938 22.695313-65.523438 54.167969-86.226563 91.023438-21.355469 38.023437-32.644531 81.3125-32.644531 125.183594 0 10.683593.648438 21.269531 1.933594 31.707031 6.917968 56.375 32.25 108.523437 73.046875 149.320312 48.347656 48.351563 112.636719 74.980469 181.011719 74.980469 68.378906 0 132.664062-26.628906 181.015624-74.980469 40.796876-40.796875 66.128907-92.945312 73.046876-149.320312 1.28125-10.4375 1.929687-21.023438 1.929687-31.707031zm0 0" fill="#ffa500" data-original="#000000" style="" class=""/><path xmlns="http://www.w3.org/2000/svg" d="m410.65625 144.804688c2.421875 3.359374 7.113281 4.121093 10.46875 1.699218 3.359375-2.421875 4.121094-7.109375 1.699219-10.46875-18.652344-25.886718-43.425781-47.378906-71.636719-62.148437-29.152344-15.257813-62.070312-23.328125-95.195312-23.328125-113.308594 0-205.488282 92.160156-205.488282 205.433594 0 113.277343 92.183594 205.433593 205.488282 205.433593 113.304687 0 205.488281-92.15625 205.488281-205.433593 0-30.820313-6.664063-60.457032-19.800781-88.089844l-.257813-.535156c-1.796875-3.734376-6.277344-5.300782-10.007813-3.507813-3.734374 1.796875-5.304687 6.277344-3.507812 10.011719l.226562.472656c12.171876 25.601562 18.347657 53.074219 18.347657 81.648438 0 105.007812-85.453125 190.433593-190.488281 190.433593-105.035157 0-190.488282-85.429687-190.488282-190.433593 0-105.003907 85.453125-190.433594 190.488282-190.433594 30.710937 0 61.222656 7.476562 88.238281 21.617187 26.15625 13.695313 49.128906 33.621094 66.425781 57.628907zm0 0" fill="#ffa500" data-original="#000000" style="" class=""/><path xmlns="http://www.w3.org/2000/svg" d="m360.746094 257.992188c0-4.144532-3.355469-7.5-7.5-7.5h-65.238282c-2.214843-12.71875-11.96875-22.902344-24.515624-25.855469v-116.59375c0-4.140625-3.359376-7.5-7.5-7.5-4.144532 0-7.5 3.359375-7.5 7.5v116.59375c-14.316407 3.371093-25 16.144531-25 31.355469 0 17.773437 14.578124 32.230468 32.5 32.230468 14.585937 0 26.957031-9.582031 31.054687-22.730468h66.199219c4.144531 0 7.5-3.359376 7.5-7.5zm-104.753906 15.230468c-9.648438 0-17.5-7.730468-17.5-17.230468s7.851562-17.230469 17.5-17.230469c9.648437 0 17.5 7.730469 17.5 17.230469s-7.851563 17.230468-17.5 17.230468zm0 0" fill="#ffa500" data-original="#000000" style="" class=""/></g></svg>
